<?xml version="1.0" encoding="UTF-8" standalone="no"?>
<!DOCTYPE svg PUBLIC "-//W3C//DTD SVG 1.1//EN" "http://www.w3.org/Graphics/SVG/1.1/DTD/svg11.dtd">
<svg width="100%" height="100%" viewBox="0 0 19 22" version="1.1" xmlns="http://www.w3.org/2000/svg" xmlns:xlink="http://www.w3.org/1999/xlink" xml:space="preserve" xmlns:serif="http://www.serif.com/" style="fill-rule:evenodd;clip-rule:evenodd;stroke-linejoin:round;stroke-miterlimit:2;">
    <g transform="matrix(1,0,0,1,-2,-1)">
        <path d="M16,1L4,1C2.9,1 2,1.9 2,3L2,17L4,17L4,3L16,3L16,1ZM19,5L8,5C6.9,5 6,5.9 6,7L6,21C6,22.1 6.9,23 8,23L19,23C20.1,23 21,22.1 21,21L21,7C21,5.9 20.1,5 19,5ZM19,21L8,21L8,7L19,7L19,21Z" style="fill:rgb(201,212,226);fill-rule:nonzero;"/>
    </g>
</svg>
